<svg xmlns="http://www.w3.org/2000/svg" version="1.1" xmlns:xlink="http://www.w3.org/1999/xlink" xmlns:svgjs="http://svgjs.com/svgjs" width="1440" height="560" preserveAspectRatio="none" viewBox="0 0 1440 560"><g mask="url(&quot;#SvgjsMask1166&quot;)" fill="none"><path d="M758.315,74.608C778.958,75.678,799.736,67.398,810.588,49.805C821.952,31.381,823.423,6.934,810.986,-10.784C799.806,-26.712,777.724,-26.07,758.315,-24.666C741.974,-23.484,726.085,-17.888,717.37,-4.014C708.073,10.786,706.583,29.331,714.656,44.833C723.377,61.578,739.46,73.631,758.315,74.608" fill="rgba(199, 213, 255, 0.2)" class="triangle-float2"></path><path d="M171.554,412.541C190.405,412.39,206.313,401.397,217.139,385.963C230.379,367.087,244.091,344.331,233.909,323.644C222.972,301.422,196.287,292.028,171.554,293.346C148.966,294.549,129.882,309.511,119.734,329.727C110.567,347.987,113.852,369.381,124.69,386.702C134.832,402.909,152.436,412.694,171.554,412.541" fill="rgba(199, 213, 255, 0.2)" class="triangle-float1"></path><path d="M165.94,407.38C183.764,406.853,202.093,401.952,211.379,386.729C221.005,370.948,219.346,351.004,210.09,335.004C200.848,319.029,184.386,308.775,165.94,308.182C146.37,307.552,126.881,315.345,116.58,331.996C105.758,349.488,104.326,372.354,115.594,389.562C126.046,405.525,146.868,407.944,165.94,407.38" fill="rgba(199, 213, 255, 0.2)" class="triangle-float1"></path><path d="M80.331,276.859C129.504,275.235,158.82,226.608,180.65,182.516C199.511,144.421,207.342,100.351,185.893,63.651C164.617,27.246,122.447,12.909,80.331,10.866C33.344,8.587,-19.531,12.662,-44.595,52.471C-70.794,94.084,-56.084,146.583,-32.165,189.546C-7.417,233.997,29.483,278.539,80.331,276.859" fill="rgba(199, 213, 255, 0.2)" class="triangle-float2"></path><path d="M1346.906,761.407C1398.612,758.907,1444.293,729.612,1469.72,684.521C1494.683,640.252,1493.574,587.541,1470.476,542.271C1444.822,491.992,1403.348,443.122,1346.906,443.819C1291.21,444.507,1256.195,496.926,1228.515,545.261C1201.072,593.183,1175.115,649.047,1201.644,697.481C1228.882,747.21,1290.272,764.145,1346.906,761.407" fill="rgba(199, 213, 255, 0.2)" class="triangle-float2"></path><path d="M141.328,111.15C157.27,111.318,173.563,105.109,181.203,91.116C188.598,77.57,183.093,61.798,175.654,48.276C167.844,34.079,157.529,18.862,141.328,18.634C124.881,18.403,113.064,32.791,105.287,47.286C98.012,60.846,95.32,76.889,102.883,90.29C110.563,103.899,125.702,110.985,141.328,111.15" fill="rgba(199, 213, 255, 0.2)" class="triangle-float2"></path><path d="M1488.656,758.319C1536.939,758.134,1579.032,728.877,1603.671,687.354C1628.882,644.868,1638.027,591.75,1612.646,549.365C1587.818,507.902,1536.95,493.461,1488.656,495.285C1443.806,496.979,1403.098,519.74,1379.893,558.157C1355.821,598.009,1349.875,647.333,1372.104,688.242C1395.302,730.934,1440.069,758.505,1488.656,758.319" fill="rgba(199, 213, 255, 0.2)" class="triangle-float1"></path><path d="M1248.923,56.52C1266.579,56.223,1282.413,46.685,1291.614,31.614C1301.253,15.825,1304.422,-3.724,1295.644,-20.008C1286.447,-37.069,1268.303,-47.283,1248.923,-47.582C1229.002,-47.889,1209.385,-38.864,1199.639,-21.488C1190.074,-4.435,1193.231,16.562,1203.674,33.091C1213.397,48.481,1230.722,56.826,1248.923,56.52" fill="rgba(199, 213, 255, 0.2)" class="triangle-float3"></path><path d="M1266.788,422.594C1301.758,420.823,1325.12,390.712,1342.431,360.276C1359.482,330.298,1373.897,294.587,1356.547,264.781C1339.267,235.094,1301.137,230.069,1266.788,230.322C1233.019,230.571,1197.734,237.798,1179.292,266.088C1159.27,296.801,1158.707,336.673,1176.598,368.675C1194.917,401.443,1229.295,424.493,1266.788,422.594" fill="rgba(199, 213, 255, 0.2)" class="triangle-float3"></path><path d="M1420.564,242.538C1451.702,242.413,1475.359,218.29,1491.202,191.484C1507.403,164.072,1519.115,130.57,1502.952,103.135C1486.953,75.978,1452.077,70.958,1420.564,71.583C1390.423,72.181,1359.06,80.384,1343.653,106.297C1327.965,132.682,1333.843,165.325,1348.934,192.057C1364.325,219.321,1389.256,242.664,1420.564,242.538" fill="rgba(199, 213, 255, 0.2)" class="triangle-float1"></path><path d="M975.43,302.865C1022.067,299.913,1057.931,265.439,1079.943,224.218C1100.529,185.668,1103.479,140.39,1082.733,101.926C1060.866,61.384,1021.396,33.44,975.43,30.446C923.497,27.064,868.4,42.025,840.839,86.171C811.898,132.529,816.345,192.653,845.18,239.077C872.518,283.092,923.719,306.138,975.43,302.865" fill="rgba(199, 213, 255, 0.2)" class="triangle-float1"></path><path d="M1340.655,510.639C1357.805,510.662,1372.431,499.491,1381.011,484.641C1389.596,469.782,1392.809,451.014,1383.394,436.667C1374.607,423.278,1356.655,422.455,1340.655,423.146C1326.196,423.77,1311.79,427.991,1303.866,440.101C1295.149,453.422,1293.123,470.419,1300.485,484.534C1308.4,499.71,1323.539,510.616,1340.655,510.639" fill="rgba(199, 213, 255, 0.2)" class="triangle-float2"></path><path d="M1246.294,120.594C1272.954,119.731,1298.993,110.552,1313.566,88.211C1329.607,63.618,1336.889,30.918,1320.816,6.346C1305.675,-16.801,1273.88,-16.646,1246.294,-14.636C1222.981,-12.937,1201.885,-3.156,1188.476,15.99C1172.328,39.046,1157.416,68.188,1171.033,92.823C1184.897,117.906,1217.649,121.521,1246.294,120.594" fill="rgba(199, 213, 255, 0.2)" class="triangle-float3"></path><path d="M332.946,479.185C377.206,478.748,419.325,459.158,442.589,421.503C467.103,381.824,473.317,331,449.135,291.118C425.672,252.422,378.195,241.32,332.946,240.675C286.213,240.009,235.502,248,210.878,287.725C185.231,329.099,193.323,382.657,219.492,423.703C243.748,461.748,287.828,479.63,332.946,479.185" fill="rgba(199, 213, 255, 0.2)" class="triangle-float3"></path><path d="M452.643,384.918C504.116,387.103,563.289,380.835,588.204,335.741C612.68,291.442,581.344,241.61,556.043,197.777C530.735,153.933,503.267,100.759,452.643,100.889C402.127,101.019,373.539,153.526,350.163,198.308C329.078,238.702,313.717,285.08,335.651,325.02C358.254,366.179,405.728,382.927,452.643,384.918" fill="rgba(199, 213, 255, 0.2)" class="triangle-float3"></path><path d="M1120.571,524.795C1175.136,527.093,1226.197,496.141,1253.101,448.615C1279.626,401.759,1276.484,344.25,1248.978,297.963C1222.076,252.693,1173.137,222.451,1120.571,225.594C1072.294,228.48,1039.195,269.296,1016.262,311.876C994.79,351.744,986.138,397.547,1006.06,438.212C1028.624,484.271,1069.327,522.637,1120.571,524.795" fill="rgba(199, 213, 255, 0.2)" class="triangle-float2"></path><path d="M958.541,345.121C1008.847,347.124,1060.676,332.676,1088.549,290.75C1119.401,244.342,1126.457,183.089,1098.187,135.065C1070.257,87.619,1013.572,68.251,958.541,69.899C906.557,71.456,857.246,97.185,832.669,143.018C809.265,186.665,819.128,239.025,845.31,281.064C869.881,320.516,912.1,343.272,958.541,345.121" fill="rgba(199, 213, 255, 0.2)" class="triangle-float1"></path><path d="M1226.688,515.441C1249.237,515.224,1265.663,497.044,1277.302,477.73C1289.454,457.565,1298.943,433.918,1288.546,412.794C1277.101,389.54,1252.596,375.617,1226.688,374.892C1199.445,374.13,1170.8,384.822,1158.533,409.159C1147.062,431.919,1160.598,457.267,1174.356,478.722C1186.685,497.948,1203.849,515.661,1226.688,515.441" fill="rgba(199, 213, 255, 0.2)" class="triangle-float1"></path><path d="M657.693,478.41C678.036,477.939,697.415,470.05,708.735,453.142C721.565,433.979,727.99,409.684,717.432,389.182C706.094,367.166,682.453,353.576,657.693,354.027C633.64,354.465,613.11,370.163,601.606,391.291C590.618,411.472,589.949,436.283,602.387,455.603C613.956,473.574,636.326,478.905,657.693,478.41" fill="rgba(199, 213, 255, 0.2)" class="triangle-float2"></path><path d="M189.74,200.231C231.482,201.426,274.927,187.815,296.139,151.844C317.627,115.406,308.396,70.746,287.928,33.725C266.64,-4.778,233.735,-40.959,189.74,-40.601C146.17,-40.247,114.266,-3.417,94.28,35.3C76.131,70.457,73.571,111.798,93.39,146.041C113.173,180.222,150.263,199.101,189.74,200.231" fill="rgba(199, 213, 255, 0.2)" class="triangle-float3"></path></g><defs><mask id="SvgjsMask1166"><rect width="1440" height="560" fill="#ffffff"></rect></mask></defs></svg>